<?xml version="1.0" standalone="no"?>
<!DOCTYPE svg PUBLIC "-//W3C//DTD SVG 20010904//EN"
 "http://www.w3.org/TR/2001/REC-SVG-20010904/DTD/svg10.dtd">
<svg version="1.0" xmlns="http://www.w3.org/2000/svg"
 width="300.000000pt" height="200.000000pt" viewBox="0 0 300.000000 200.000000"
 preserveAspectRatio="xMidYMid meet">
<metadata>
Created by potrace 1.10, written by Peter Selinger 2001-2011
</metadata>
<g transform="translate(0.000000,200.000000) scale(0.100000,-0.100000)"
fill="#4169e1" stroke="none">
<path d="M1466 1973 c-7 -16 -67 -152 -131 -303 -220 -515 -306 -715 -313
-722 -6 -6 -41 -11 -247 -34 -97 -11 -26 -21 79 -11 63 6 92 5 94 -2 2 -6 8
-11 14 -11 6 0 8 7 4 15 -4 11 1 15 19 15 13 0 27 5 30 10 3 6 24 10 47 10 24
0 51 8 68 20 15 11 38 24 51 28 18 7 55 85 196 418 271 637 254 596 237 592
-9 -2 -34 -46 -58 -103 -23 -55 -98 -232 -166 -393 -105 -248 -127 -293 -142
-289 -10 3 -18 1 -18 -4 0 -5 7 -9 15 -9 19 0 15 -32 -7 -57 -8 -10 -21 -40
-29 -66 -12 -41 -21 -53 -62 -78 -47 -29 -77 -37 -77 -20 0 13 61 154 71 166
5 5 9 19 9 31 0 12 7 27 15 34 8 7 15 17 15 22 0 9 122 303 145 348 7 14 47
108 90 210 42 102 79 191 82 198 11 25 -17 11 -31 -15z"/>
<path d="M1745 1863 c-32 -76 -66 -156 -75 -178 -49 -113 -105 -246 -165 -390
-37 -88 -73 -173 -80 -190 -7 -16 -25 -56 -39 -89 -27 -61 -35 -99 -12 -56 8
14 81 185 164 380 83 195 180 424 215 508 36 83 62 152 58 152 -4 0 -34 -62
-66 -137z"/>
<path d="M2120 1990 c0 -5 5 -10 10 -10 6 0 10 5 10 10 0 6 -4 10 -10 10 -5 0
-10 -4 -10 -10z"/>
<path d="M2174 1988 c2 -7 16 -13 32 -13 16 0 35 -4 43 -9 10 -6 18 -3 28 9
12 18 13 18 13 -1 0 -12 6 -21 13 -21 6 0 22 -3 33 -7 15 -4 23 -2 28 9 5 14
-6 20 -28 16 -5 -1 -13 4 -17 11 -7 10 -9 10 -9 -2 0 -13 -2 -13 -9 -1 -13 21
-41 22 -42 3 0 -14 -1 -15 -7 -2 -9 19 -28 23 -52 10 -12 -7 -20 -7 -23 0 -3
6 -4 5 -3 -2z"/>
<path d="M2600 1993 c14 -2 108 -20 209 -39 171 -33 209 -36 185 -16 -17 16
-290 62 -355 61 -35 -1 -53 -4 -39 -6z"/>
<path d="M1920 1895 c-9 -10 -9 -15 -1 -15 6 0 11 5 11 11 0 6 7 8 16 5 8 -3
12 -2 9 4 -9 14 -21 12 -35 -5z"/>
<path d="M1976 1878 c10 -33 14 -35 30 -14 14 19 14 19 14 -4 0 -22 1 -23 20
-5 19 18 20 17 20 -5 0 -17 3 -21 10 -14 7 7 7 20 2 33 -8 22 -9 22 -25 6 -15
-14 -17 -15 -17 -1 0 21 -17 20 -29 -1 -9 -16 -10 -16 -11 5 0 12 -5 22 -11
22 -6 0 -8 -9 -3 -22z"/>
<path d="M1940 1868 c0 -4 7 -8 15 -8 8 0 15 4 15 8 0 5 -7 9 -15 9 -8 0 -15
-4 -15 -9z"/>
<path d="M2080 1869 c0 -5 5 -7 10 -4 6 3 10 8 10 11 0 2 -4 4 -10 4 -5 0 -10
-5 -10 -11z"/>
<path d="M2116 1872 c-4 -7 -1 -15 8 -18 9 -3 16 -11 16 -16 0 -6 -7 -5 -15 2
-9 7 -18 10 -22 6 -10 -10 2 -17 34 -20 15 -2 41 -9 58 -15 25 -10 31 -10 42
5 7 9 10 21 6 27 -3 5 -9 4 -14 -4 -4 -7 -5 -17 -2 -22 3 -5 -4 -4 -16 2 -11
7 -21 19 -21 28 0 15 -2 14 -19 -1 -16 -14 -19 -15 -24 -2 -3 8 -3 17 1 19 4
2 2 2 -5 1 -6 -2 -13 2 -16 9 -2 8 -5 8 -11 -1z"/>
<path d="M2205 1840 c3 -5 8 -10 11 -10 2 0 4 5 4 10 0 6 -5 10 -11 10 -5 0
-7 -4 -4 -10z"/>
<path d="M72 1820 c-23 -11 -42 -22 -42 -25 0 -3 3 -4 8 -2 4 3 26 10 50 16
23 7 42 16 42 21 0 13 -8 12 -58 -10z"/>
<path d="M2256 1822 c-10 -9 -7 -24 3 -18 5 4 11 0 13 -6 3 -7 16 -13 29 -14
13 -1 41 -4 62 -9 23 -4 37 -3 37 3 0 9 -47 27 -63 24 -4 -1 -23 4 -41 12 -19
8 -37 12 -40 8z"/>
<path d="M4 1776 c-3 -8 -4 -23 -2 -33 3 -11 6 -6 9 15 6 34 2 42 -7 18z"/>
<path d="M436 1771 c-3 -4 23 -9 57 -10 44 -1 58 2 47 9 -18 12 -97 13 -104 1z"/>
<path d="M561 1766 c9 -9 79 -13 79 -5 0 5 -19 9 -42 9 -23 0 -39 -2 -37 -4z"/>
<path d="M670 1750 c14 -4 34 -8 45 -9 16 -1 17 1 5 9 -8 5 -28 9 -45 9 -29
-1 -29 -1 -5 -9z"/>
<path d="M1860 1748 c0 -6 3 -9 6 -5 3 3 18 1 33 -5 14 -5 40 -12 56 -14 17
-2 40 -6 52 -8 15 -3 20 -1 17 9 -3 7 -14 11 -25 8 -10 -3 -27 1 -36 8 -12 10
-17 11 -20 2 -3 -8 -11 -7 -31 3 -33 17 -52 18 -52 2z"/>
<path d="M784 1711 c6 -9 -63 -41 -89 -41 -8 0 -15 -5 -15 -10 0 -12 32 -5 99
19 52 19 66 41 26 41 -14 0 -24 -4 -21 -9z"/>
<path d="M2047 1703 c4 -11 3 -14 -5 -9 -7 4 -12 3 -12 -2 0 -5 12 -12 28 -15
15 -3 36 -9 47 -13 11 -4 17 -4 13 1 -4 4 -3 14 4 22 13 16 10 20 -17 25 -14
2 -19 -2 -17 -14 2 -12 -2 -16 -12 -12 -8 3 -12 12 -9 20 3 8 -1 14 -11 14
-10 0 -13 -5 -9 -17z m73 -7 c0 -3 -4 -8 -10 -11 -5 -3 -10 -1 -10 4 0 6 5 11
10 11 6 0 10 -2 10 -4z"/>
<path d="M191 1679 c-47 -19 -191 -133 -191 -151 0 -15 10 -11 55 22 30 22 60
40 68 40 14 0 530 -140 535 -145 3 -3 -126 -105 -405 -318 l-155 -119 -43 11
c-56 14 -55 14 -55 -7 0 -15 6 -17 35 -14 19 2 42 -1 50 -8 12 -10 37 6 144
87 446 340 560 430 566 442 3 8 1 19 -4 24 -10 10 -536 147 -561 146 -8 0 -26
-5 -39 -10z m79 -18 c0 -5 -6 -12 -12 -14 -10 -4 -10 -6 -1 -6 6 -1 14 3 17 7
5 8 143 -20 261 -54 28 -7 88 -24 135 -37 53 -15 85 -29 85 -38 0 -20 -77 -69
-95 -59 -15 8 -194 58 -385 107 -55 14 -111 31 -124 38 l-23 12 37 23 c28 17
39 20 45 11 5 -10 9 -9 13 3 7 17 47 23 47 7z"/>
<path d="M2136 1674 c-3 -8 -2 -13 3 -9 5 3 11 0 13 -7 2 -6 22 -12 45 -14 22
-1 50 -7 61 -13 15 -8 23 -8 27 0 9 14 2 20 -24 22 -11 1 -21 4 -21 7 0 3 -15
7 -32 8 -18 2 -37 7 -42 12 -14 14 -23 12 -30 -6z"/>
<path d="M610 1649 c-24 -7 -24 -7 5 -8 17 0 37 4 45 9 12 7 11 9 -5 8 -11 -1
-31 -5 -45 -9z"/>
<path d="M2991 1644 c0 -11 3 -14 6 -6 3 7 2 16 -1 19 -3 4 -6 -2 -5 -13z"/>
<path d="M17 1599 c7 -7 15 -10 18 -7 3 3 -2 9 -12 12 -14 6 -15 5 -6 -5z"/>
<path d="M775 1594 l-40 -14 39 5 c22 2 44 9 50 15 13 13 1 11 -49 -6z"/>
<path d="M1774 1565 c-20 -48 -19 -50 29 -62 23 -6 247 -63 498 -127 251 -64
459 -116 462 -116 7 0 49 82 44 85 -4 3 -1003 255 -1011 255 -4 0 -14 -16 -22
-35z m71 -7 c22 1 36 -15 28 -34 -5 -15 -62 -1 -75 18 -6 10 -8 10 -8 -1 0 -8
-2 -12 -5 -9 -12 12 8 39 24 32 9 -4 25 -6 36 -6z m70 -28 c-3 -5 0 -12 6 -16
8 -4 9 -3 5 4 -4 7 -2 12 3 12 6 0 11 -4 11 -9 0 -5 10 -7 22 -3 13 3 19 1 15
-5 -4 -6 3 -8 18 -5 18 3 25 0 25 -12 0 -22 -3 -21 -120 9 -8 2 -16 4 -18 4
-1 1 2 10 8 21 6 11 15 18 21 15 5 -4 7 -10 4 -15z m151 -35 c4 -8 10 -12 15
-9 5 2 17 0 28 -6 13 -7 22 -7 26 0 4 6 12 4 21 -5 9 -8 22 -15 31 -15 13 0
13 -3 3 -15 -10 -12 -16 -13 -26 -4 -8 6 -14 9 -14 5 0 -3 -11 -1 -26 4 -14 6
-39 12 -57 15 -38 7 -41 10 -34 30 8 19 26 19 33 0z m236 -46 c29 -5 62 -14
73 -18 23 -9 130 -38 190 -51 97 -21 185 -46 195 -56 8 -8 7 -14 -3 -22 -10
-9 -77 5 -280 55 -228 57 -267 69 -267 85 0 21 17 22 92 7z"/>
<path d="M113 1559 c-10 -10 4 -17 75 -35 48 -13 161 -43 252 -68 90 -25 167
-42 170 -39 3 3 -1 8 -9 11 -11 4 -11 6 0 14 10 7 8 8 -8 5 -14 -3 -23 0 -23
6 0 8 -3 7 -9 -1 -6 -11 -10 -10 -15 3 -4 11 -13 15 -26 12 -11 -3 -20 -1 -20
5 0 6 -11 7 -26 4 -18 -5 -24 -3 -19 5 5 8 1 9 -13 5 -13 -4 -31 -1 -45 9 -14
9 -32 13 -42 9 -14 -6 -16 -4 -10 6 5 9 4 11 -4 6 -6 -4 -18 -2 -26 4 -8 7
-20 10 -27 7 -7 -2 -29 4 -50 14 -50 25 -110 34 -125 18z m102 -20 c14 -13
-14 -10 -55 6 l-35 14 40 -6 c22 -3 44 -9 50 -14z"/>
<path d="M800 1570 c0 -3 9 -28 19 -56 25 -66 24 -67 -127 -184 -64 -50 -166
-129 -227 -176 -60 -48 -125 -93 -144 -101 -18 -8 -31 -16 -29 -19 3 -2 21 2
41 11 21 9 48 12 67 9 42 -9 90 -55 90 -88 0 -14 5 -26 10 -26 6 0 10 5 10 10
0 6 7 10 15 10 8 0 15 3 15 6 0 12 -87 86 -115 98 l-29 12 90 75 c50 41 117
93 150 116 32 24 72 54 87 67 16 14 47 39 69 58 50 40 60 65 47 115 -9 31 -39
80 -39 63z"/>
<path d="M80 1521 c0 -5 7 -11 15 -15 8 -3 15 -1 15 3 0 5 -7 11 -15 15 -8 3
-15 1 -15 -3z"/>
<path d="M122 1505 c3 -3 14 -8 24 -10 64 -15 93 -23 103 -29 6 -4 11 -3 11 2
0 5 -26 17 -58 26 -59 16 -90 20 -80 11z"/>
<path d="M2969 1505 c-12 -11 3 -45 20 -45 10 0 12 3 5 8 -7 4 -13 15 -15 25
-2 11 -7 16 -10 12z"/>
<path d="M2920 1488 c0 -12 7 -18 23 -17 15 0 17 2 7 6 -8 3 -18 11 -22 17 -5
7 -8 4 -8 -6z"/>
<path d="M10 1469 c0 -7 3 -9 7 -6 3 4 11 3 17 -2 7 -6 23 -12 36 -15 14 -3
36 -8 50 -11 14 -3 30 -7 35 -8 6 -2 15 -5 20 -9 6 -3 26 -8 45 -12 32 -6 33
-5 10 5 -14 6 -34 16 -45 21 -12 5 -28 10 -38 12 -9 1 -19 5 -23 8 -3 4 -12 4
-20 1 -8 -3 -14 -1 -14 4 0 5 -8 9 -17 9 -10 0 -28 4 -40 8 -16 5 -23 3 -23
-5z"/>
<path d="M0 1411 c0 -8 39 -24 65 -26 6 0 15 -3 20 -7 6 -3 26 -8 45 -12 32
-6 33 -5 10 5 -14 6 -35 16 -47 21 -11 6 -26 7 -32 4 -6 -4 -11 -2 -11 5 0 7
-3 9 -6 6 -4 -3 -15 -2 -25 4 -11 6 -19 6 -19 0z"/>
<path d="M4 1333 c4 -5 22 -13 39 -20 l32 -12 -40 6 c-73 11 -29 -7 130 -53
146 -42 205 -49 205 -25 0 7 -342 111 -365 111 -5 0 -5 -3 -1 -7z"/>
<path d="M2821 1299 c-10 -24 -17 -45 -16 -47 2 -2 38 -12 82 -23 43 -11 86
-22 96 -25 11 -3 17 0 17 9 0 10 -14 18 -40 22 -30 5 -40 11 -40 25 0 23 17
35 33 22 27 -20 47 -22 47 -3 0 14 -14 22 -63 35 -35 8 -71 18 -80 22 -13 5
-22 -5 -36 -37z m89 -26 c0 -20 -20 -25 -51 -13 -27 11 -37 29 -24 42 9 9 75
-16 75 -29z"/>
<path d="M1915 1295 c-42 -23 -71 -52 -86 -86 -15 -38 -2 -52 19 -19 35 54 82
90 118 90 19 0 34 -3 34 -7 0 -5 -14 -28 -30 -53 -36 -55 -37 -60 -5 -60 14 0
25 5 25 10 0 6 -7 10 -16 10 -17 0 -17 1 11 47 23 38 30 40 45 13 17 -31 9
-75 -12 -74 -10 1 -18 -2 -18 -7 0 -5 7 -9 15 -9 21 0 19 -7 -11 -43 -48 -57
-103 -72 -150 -41 -32 22 -42 12 -15 -15 34 -34 101 -29 146 11 74 64 97 170
48 219 -27 27 -81 33 -118 14z"/>
<path d="M2267 1303 c-12 -11 -8 -23 7 -23 8 0 16 7 20 15 5 15 -14 21 -27 8z"/>
<path d="M2306 1293 c-9 -23 -7 -26 19 -21 14 3 25 1 25 -4 0 -6 6 -8 14 -5 8
3 16 1 19 -6 2 -6 6 -4 10 6 4 12 1 17 -11 17 -9 0 -29 6 -44 14 -23 12 -27
12 -32 -1z"/>
<path d="M489 1234 c-46 -36 -86 -72 -87 -81 -6 -23 8 -15 102 57 76 58 103
90 78 90 -5 0 -47 -30 -93 -66z"/>
<path d="M2410 1266 c0 -16 34 -31 49 -22 5 4 11 1 13 -6 2 -6 10 -8 16 -4 18
11 4 26 -23 26 -13 0 -27 5 -30 10 -9 15 -25 12 -25 -4z"/>
<path d="M2286 1245 c-3 -8 -1 -15 3 -15 5 0 11 7 15 15 3 8 1 15 -3 15 -5 0
-11 -7 -15 -15z"/>
<path d="M100 1235 c14 -8 19 -14 11 -15 -8 0 -12 -2 -9 -5 3 -3 16 -2 28 3
23 9 23 9 -10 20 -44 16 -51 15 -20 -3z"/>
<path d="M2317 1243 c-14 -13 -6 -20 21 -18 15 0 33 -5 40 -12 8 -7 18 -11 23
-8 5 4 9 0 9 -7 0 -10 2 -10 9 1 6 9 11 10 15 2 10 -16 23 -14 23 4 0 9 -8 13
-21 11 -11 -2 -26 3 -33 10 -7 7 -22 11 -33 9 -11 -2 -20 0 -20 6 0 10 -23 12
-33 2z"/>
<path d="M157 1215 c-4 -8 3 -10 19 -7 29 5 30 8 5 15 -11 3 -22 -1 -24 -8z"/>
<path d="M2227 1206 c-3 -8 -2 -18 3 -21 13 -8 24 15 12 27 -6 6 -11 4 -15 -6z"/>
<path d="M64 1201 c4 -5 3 -11 -1 -14 -5 -2 -2 -2 5 0 8 1 21 3 30 4 14 0 13
2 -3 9 -27 12 -37 12 -31 1z"/>
<path d="M2266 1194 c-8 -21 -8 -21 29 -25 17 -2 36 -8 44 -14 12 -8 13 -7 6
5 -8 13 -7 13 8 1 15 -12 17 -11 17 3 0 9 -6 16 -12 17 -29 2 -51 8 -61 18
-15 15 -24 14 -31 -5z"/>
<path d="M2476 1203 c-13 -13 -5 -23 17 -23 13 0 28 -5 34 -11 7 -7 12 -5 17
8 4 9 4 14 0 10 -4 -4 -12 -3 -18 2 -17 13 -43 20 -50 14z"/>
<path d="M180 1196 c0 -2 7 -6 15 -10 8 -3 15 -1 15 4 0 6 -7 10 -15 10 -8 0
-15 -2 -15 -4z"/>
<path d="M122 1179 c4 -19 39 -32 52 -19 12 12 8 17 -27 25 -21 6 -27 4 -25
-6z"/>
<path d="M1904 1174 c-18 -14 -18 -15 4 -4 12 6 22 13 22 15 0 8 -5 6 -26 -11z"/>
<path d="M16 1164 c-3 -7 -1 -16 4 -19 6 -4 10 -1 10 4 0 14 27 14 35 1 4 -6
-1 -7 -12 -4 -15 5 -15 4 -3 -5 8 -5 19 -6 23 -2 12 12 48 1 40 -13 -3 -7 -1
-6 7 1 15 14 11 22 -16 28 -11 2 -33 8 -51 14 -24 7 -33 6 -37 -5z"/>
<path d="M2387 1173 c-16 -15 -7 -35 13 -30 13 3 20 0 20 -9 0 -8 -7 -14 -15
-14 -16 0 -20 -12 -8 -23 3 -4 17 5 29 19 22 23 25 24 47 9 21 -14 37 -12 37
4 0 11 -89 34 -104 28 -10 -4 -13 -1 -9 9 5 15 1 18 -10 7z"/>
<path d="M1590 1024 c-118 -75 -223 -141 -232 -148 -10 -6 -18 -18 -18 -27 0
-28 -34 -49 -78 -49 -23 0 -41 3 -41 8 3 19 -2 29 -16 29 -8 0 -15 -4 -15 -9
0 -4 5 -8 10 -8 6 0 10 -6 10 -14 0 -9 -16 -16 -45 -20 -24 -4 -47 -11 -50
-16 -9 -15 -41 1 -59 31 -9 16 -21 29 -27 29 -15 0 -10 -16 11 -35 11 -10 17
-21 15 -26 -7 -11 -104 -2 -120 11 -7 6 -19 8 -28 5 -8 -4 -31 1 -52 9 -37 16
-94 22 -82 9 23 -22 197 -65 257 -62 8 0 34 0 58 0 24 -1 53 6 67 15 14 9 49
18 78 20 29 1 68 5 88 9 62 12 78 -6 93 -107 3 -22 16 -16 16 8 0 52 -20 105
-42 113 -21 7 -20 8 8 23 16 8 70 40 119 71 303 187 336 210 352 244 11 22 9
23 -25 23 -30 0 -77 -25 -252 -136z m220 96 c-14 -11 -31 -20 -39 -20 -17 0
-11 7 26 30 36 22 45 14 13 -10z m-57 -26 c4 -4 -26 -27 -66 -51 -39 -25 -76
-47 -81 -50 -5 -3 -7 -1 -5 5 4 10 125 98 140 101 3 0 9 -2 12 -5z m-163 -103
c0 -5 -21 -22 -47 -37 -27 -15 -77 -47 -112 -71 -36 -23 -67 -41 -69 -38 -7 6
-12 2 88 68 47 31 94 63 105 71 23 18 35 20 35 7z"/>
<path d="M2247 1153 c-10 -9 -9 -23 2 -23 5 0 11 7 15 15 5 15 -5 20 -17 8z"/>
<path d="M2275 1150 c-8 -13 11 -30 35 -30 12 0 13 2 1 9 -7 5 -17 14 -21 21
-6 10 -9 10 -15 0z"/>
<path d="M2336 1124 c-3 -8 1 -14 9 -14 20 0 28 17 11 23 -8 3 -17 -1 -20 -9z"/>
<path d="M2187 1113 c-12 -11 -8 -23 8 -23 8 0 15 7 15 15 0 16 -12 20 -23 8z"/>
<path d="M2220 1101 c0 -18 24 -28 78 -33 13 -1 28 -8 34 -15 14 -17 28 -16
28 1 0 14 -19 24 -59 31 -9 2 -17 4 -18 5 -2 2 -7 3 -12 4 -5 0 -13 4 -17 9
-10 10 -34 9 -34 -2z"/>
<path d="M2436 1103 c-12 -13 -5 -22 14 -18 11 2 22 0 25 -6 8 -12 25 -12 25
0 0 11 -56 32 -64 24z"/>
<path d="M2207 1055 c-4 -8 -2 -17 3 -20 6 -4 10 3 10 14 0 25 -6 27 -13 6z"/>
<path d="M2377 1056 c-4 -9 3 -16 18 -20 13 -3 30 -9 39 -12 11 -4 16 -1 16
10 0 15 -14 20 -47 19 -7 -1 -10 3 -7 8 3 5 1 9 -4 9 -6 0 -12 -6 -15 -14z"/>
<path d="M212 1018 c-29 -22 -52 -47 -52 -54 0 -8 2 -14 5 -14 11 0 115 82
115 91 0 21 -20 14 -68 -23z"/>
<path d="M2234 1048 c-7 -12 -4 -15 20 -20 10 -1 21 2 23 8 5 14 -35 26 -43
12z"/>
<path d="M2293 1025 c0 -8 6 -15 12 -15 6 0 12 7 12 15 0 8 -6 15 -12 15 -6 0
-12 -7 -12 -15z"/>
<path d="M2350 1019 c0 -6 -4 -7 -10 -4 -5 3 -10 1 -10 -4 0 -12 7 -13 34 -2
18 7 18 8 3 14 -9 3 -17 2 -17 -4z"/>
<path d="M380 1004 c0 -3 11 -16 26 -30 14 -14 24 -33 22 -41 -3 -15 -58 -38
-108 -47 -14 -2 -42 -7 -63 -11 -31 -6 -41 -4 -52 11 -18 24 -18 27 3 50 44
50 43 55 -5 19 l-52 -38 24 -28 c13 -16 25 -33 27 -39 2 -8 26 -7 83 4 117 22
158 37 172 65 15 30 1 61 -27 61 -11 0 -20 4 -20 9 0 5 -7 11 -15 15 -8 3 -15
3 -15 0z"/>
<path d="M2385 1000 c-3 -5 -1 -10 4 -10 6 0 11 5 11 10 0 6 -2 10 -4 10 -3 0
-8 -4 -11 -10z"/>
<path d="M2428 988 c12 -12 25 -19 28 -15 4 4 -1 14 -12 22 -29 22 -41 18 -16
-7z"/>
<path d="M552 982 c6 -7 14 -9 17 -5 4 4 10 11 15 16 5 4 -2 6 -17 5 -20 -2
-24 -5 -15 -16z"/>
<path d="M1303 960 c8 -11 12 -31 10 -43 -4 -20 -11 -23 -56 -24 -28 -1 -57 3
-64 9 -7 6 -13 6 -13 1 0 -19 25 -33 59 -33 19 0 42 -7 52 -16 16 -14 19 -13
34 20 17 34 14 67 -7 94 -17 20 -30 13 -15 -8z"/>
<path d="M24 950 c-17 -7 -21 -17 -22 -57 0 -26 2 -41 5 -33 3 8 14 34 24 58
10 23 17 42 16 41 -1 0 -11 -4 -23 -9z"/>
<path d="M97 943 c3 -12 11 -28 19 -34 21 -17 17 5 -5 32 -20 24 -20 24 -14 2z"/>
<path d="M1582 921 c-10 -6 -9 -11 4 -22 9 -8 20 -13 23 -11 3 2 8 -5 10 -14
2 -12 -2 -15 -12 -11 -33 13 -86 19 -99 11 -8 -5 7 -14 42 -25 570 -174 922
-280 924 -277 11 19 36 81 34 83 -2 1 -183 57 -403 124 -220 67 -420 129 -444
137 -51 16 -61 17 -79 5z m104 -50 c28 -14 41 -16 46 -8 6 9 8 9 8 0 0 -6 11
-15 25 -20 16 -5 22 -12 16 -21 -6 -10 -14 -10 -37 -2 -16 6 -32 17 -36 23 -6
9 -8 9 -8 0 0 -18 -37 -3 -49 20 -7 13 -9 14 -7 5 3 -10 1 -18 -4 -18 -11 0
-13 23 -3 33 8 9 3 10 49 -12z m249 -67 c50 -14 104 -30 120 -36 17 -5 40 -11
51 -13 12 -2 37 -10 55 -18 19 -8 78 -27 132 -42 88 -24 165 -51 176 -61 2 -2
-1 -10 -8 -18 -12 -15 -27 -12 -221 48 -41 13 -115 36 -165 50 -49 15 -110 33
-135 42 -25 8 -66 22 -92 30 -44 14 -58 30 -41 47 4 4 14 5 22 3 9 -3 57 -17
106 -32z"/>
<path d="M505 895 c-26 -12 -27 -13 -8 -14 12 -1 25 4 28 9 8 14 38 13 53 -2
6 -6 22 -12 35 -14 14 -1 42 -5 63 -8 l39 -6 -28 16 c-16 9 -35 13 -42 10 -8
-3 -15 0 -18 7 -5 16 -87 18 -122 2z"/>
<path d="M1030 905 c0 -6 18 -30 61 -82 5 -7 15 -13 20 -13 13 0 -52 92 -69
98 -6 2 -12 1 -12 -3z"/>
<path d="M995 890 c-3 -5 -5 -10 -3 -11 33 -8 38 -7 27 7 -14 17 -16 17 -24 4z"/>
<path d="M113 829 c-16 -16 -65 -20 -80 -7 -7 6 -13 7 -13 3 0 -4 8 -14 18
-21 16 -13 15 -15 -10 -35 -19 -14 -28 -30 -28 -47 l1 -27 14 25 c7 14 43 43
79 65 36 22 66 43 66 48 0 11 -35 8 -47 -4z"/>
<path d="M990 809 c0 -5 5 -7 10 -4 6 3 10 8 10 11 0 2 -4 4 -10 4 -5 0 -10
-5 -10 -11z"/>
<path d="M1460 720 c0 -5 7 -10 16 -10 8 0 12 5 9 10 -3 6 -10 10 -16 10 -5 0
-9 -4 -9 -10z"/>
<path d="M1368 704 c-3 -5 -1 -32 5 -59 5 -28 7 -67 3 -86 -6 -35 -68 -119
-79 -109 -3 3 -7 27 -8 52 -2 26 -6 45 -11 42 -5 -3 -6 -10 -2 -15 7 -12 -17
-109 -28 -109 -4 0 -23 -15 -42 -32 -32 -32 -65 -103 -52 -115 5 -5 20 25 39
80 4 9 18 22 31 27 14 5 34 17 44 27 10 10 33 28 50 41 l32 23 1 -23 c0 -13 3
-17 6 -11 3 10 8 9 20 -3 9 -8 22 -13 30 -10 8 3 12 2 9 -3 -3 -5 1 -12 10
-15 22 -9 24 -8 24 9 0 15 -13 24 -42 29 -7 1 -24 8 -36 15 -24 13 -24 13 -4
34 31 35 45 68 48 117 2 32 0 39 -6 25 -8 -18 -9 -18 -10 5 -1 30 -25 76 -32
64z"/>
<path d="M630 690 c0 -6 7 -10 15 -10 8 0 15 2 15 4 0 2 -7 6 -15 10 -8 3 -15
1 -15 -4z"/>
<path d="M1472 678 c-6 -13 -21 -38 -32 -55 -12 -18 -19 -33 -16 -33 4 0 20
21 36 47 25 40 36 43 32 11 -1 -3 14 -13 33 -22 34 -17 35 -18 35 -76 0 -32
-4 -61 -9 -64 -5 -3 -25 1 -45 9 -19 8 -41 15 -48 14 -7 0 9 -9 35 -20 27 -10
53 -17 58 -13 5 3 23 2 41 -1 22 -5 27 -9 17 -16 -8 -5 -9 -9 -3 -9 5 0 29 27
52 60 35 49 46 58 60 51 9 -5 25 -12 35 -15 19 -6 21 -31 8 -89 -8 -34 -7 -39
12 -46 31 -12 60 5 98 55 35 47 48 51 64 16 5 -12 18 -22 27 -22 16 0 17 -6
12 -42 -3 -24 -7 -49 -10 -55 -2 -7 1 -13 5 -13 5 0 15 -2 23 -5 8 -3 30 21
58 66 l45 72 5 -33 5 -33 33 37 c28 32 33 35 39 19 4 -10 12 -23 19 -30 9 -9
8 -28 -3 -84 -13 -60 -13 -73 -1 -80 24 -16 33 -9 83 74 39 65 50 77 53 60 2
-13 8 -23 14 -23 5 0 7 7 4 16 -3 9 -6 27 -6 40 0 29 -12 31 -25 4 -32 -63
-98 -160 -109 -160 -11 0 -10 14 2 74 14 73 14 74 -9 107 -13 19 -25 36 -26
37 -1 2 -16 -11 -33 -30 l-31 -33 3 38 c2 20 1 37 -2 37 -3 0 -30 -38 -59 -85
-32 -50 -58 -82 -63 -77 -5 5 -5 33 0 66 7 46 7 56 -4 52 -13 -5 -20 1 -52 39
-19 22 -24 20 -66 -35 -62 -82 -103 -80 -87 5 10 53 -2 76 -42 82 -12 2 -24 9
-29 15 -4 7 -9 10 -11 8 -2 -3 -20 -29 -41 -58 -33 -45 -40 -51 -54 -40 -8 7
-18 13 -21 13 -3 0 -7 20 -8 45 -2 66 -8 83 -27 86 -25 4 -46 24 -46 45 0 26
-14 24 -28 -3z"/>
<path d="M685 680 c-6 -10 -2 -12 13 -8 12 4 22 2 22 -3 0 -5 9 -9 21 -9 11 0
29 -5 40 -10 21 -12 26 2 6 18 -21 18 -93 26 -102 12z"/>
<path d="M1045 680 c3 -5 13 -10 21 -10 8 0 12 5 9 10 -3 6 -13 10 -21 10 -8
0 -12 -4 -9 -10z"/>
<path d="M2740 634 c0 -8 67 -34 90 -34 35 0 22 15 -25 28 -50 13 -65 15 -65
6z"/>
<path d="M2514 585 c-7 -19 -14 -38 -14 -42 0 -5 80 -32 178 -62 97 -29 210
-63 250 -76 63 -19 73 -20 70 -7 -2 10 -24 21 -61 30 -44 11 -57 18 -57 33 0
23 12 23 73 5 36 -11 47 -11 47 -2 0 10 -434 156 -463 156 -4 0 -15 -16 -23
-35z m107 -22 c30 -9 60 -16 67 -14 8 1 19 -2 26 -8 7 -6 43 -20 79 -31 41
-13 67 -26 67 -35 0 -23 -16 -26 -56 -9 -22 9 -46 18 -54 19 -42 6 -80 19 -80
27 0 5 -4 7 -9 4 -13 -9 -141 36 -141 49 0 20 22 35 35 25 7 -6 37 -18 66 -27z"/>
<path d="M1321 564 c0 -11 3 -14 6 -6 3 7 2 16 -1 19 -3 4 -6 -2 -5 -13z"/>
<path d="M1156 545 c4 -8 7 -15 9 -15 2 0 5 7 9 15 3 9 0 15 -9 15 -9 0 -12
-6 -9 -15z"/>
<path d="M2250 544 c0 -8 5 -12 10 -9 6 3 10 10 10 16 0 5 -4 9 -10 9 -5 0
-10 -7 -10 -16z"/>
<path d="M2290 532 c0 -10 33 -22 60 -22 13 1 13 2 0 9 -27 16 -60 22 -60 13z"/>
<path d="M1418 513 c7 -3 16 -2 19 1 4 3 -2 6 -13 5 -11 0 -14 -3 -6 -6z"/>
<path d="M1415 490 c3 -5 11 -10 16 -10 6 0 7 5 4 10 -3 6 -11 10 -16 10 -6 0
-7 -4 -4 -10z"/>
<path d="M2481 487 c-14 -14 -15 -30 0 -22 5 4 18 0 27 -8 26 -22 72 -31 72
-13 0 8 -14 17 -30 21 -17 4 -36 13 -44 20 -10 10 -16 11 -25 2z"/>
<path d="M1450 480 c0 -5 5 -10 10 -10 6 0 10 5 10 10 0 6 -4 10 -10 10 -5 0
-10 -4 -10 -10z"/>
<path d="M1685 425 c17 -8 37 -14 45 -14 8 0 2 7 -15 14 -16 8 -37 14 -45 14
-8 0 -1 -7 15 -14z"/>
<path d="M1624 415 c23 -18 46 -19 46 -4 0 6 -7 9 -15 5 -8 -3 -15 -1 -15 4 0
6 -8 10 -17 10 -16 -1 -16 -2 1 -15z"/>
<path d="M1334 401 c4 -5 0 -12 -6 -14 -22 -9 14 -28 40 -22 14 3 21 2 18 -4
-7 -11 22 -24 35 -15 5 3 9 14 9 26 0 18 -2 19 -17 7 -10 -8 -14 -9 -10 -2 4
6 3 14 -3 18 -5 3 -10 1 -10 -4 0 -6 -5 -11 -11 -11 -5 0 -7 5 -4 10 3 6 1 10
-4 10 -6 0 -11 -7 -11 -15 0 -8 -5 -15 -11 -15 -6 0 -8 9 -4 20 4 12 2 20 -5
20 -6 0 -9 -4 -6 -9z"/>
<path d="M1107 386 c-3 -7 -3 -24 0 -39 3 -15 1 -27 -5 -27 -11 0 -28 -38 -24
-52 1 -5 -1 -8 -5 -8 -5 0 -9 -11 -9 -25 -1 -14 2 -25 7 -25 5 0 9 7 9 15 0 8
4 15 8 15 13 0 35 89 28 116 -4 16 -3 23 3 20 5 -4 12 -2 15 3 3 5 0 11 -8 14
-8 3 -17 0 -19 -7z"/>
<path d="M2436 383 c-6 -14 -5 -15 5 -6 7 7 10 15 7 18 -3 3 -9 -2 -12 -12z"/>
<path d="M1810 361 c0 -10 30 -24 37 -17 3 2 -5 9 -16 16 -12 6 -21 7 -21 1z"/>
<path d="M2315 360 c3 -5 10 -10 16 -10 5 0 9 5 9 10 0 6 -7 10 -16 10 -8 0
-12 -4 -9 -10z"/>
<path d="M2018 313 c7 -3 16 -2 19 1 4 3 -2 6 -13 5 -11 0 -14 -3 -6 -6z"/>
<path d="M2058 303 c7 -3 16 -2 19 1 4 3 -2 6 -13 5 -11 0 -14 -3 -6 -6z"/>
<path d="M2407 303 c-13 -12 -7 -19 31 -32 20 -7 46 -16 57 -21 52 -23 267
-91 272 -86 10 9 5 11 -137 60 -182 62 -204 70 -211 79 -3 4 -8 4 -12 0z"/>
<path d="M2020 291 c0 -10 30 -24 37 -17 3 2 -5 9 -16 16 -12 6 -21 7 -21 1z"/>
<path d="M2270 289 c0 -5 5 -7 10 -4 6 3 10 8 10 11 0 2 -4 4 -10 4 -5 0 -10
-5 -10 -11z"/>
<path d="M2120 280 c8 -5 22 -9 30 -9 10 0 8 3 -5 9 -27 12 -43 12 -25 0z"/>
<path d="M2070 270 c0 -5 5 -10 10 -10 6 0 10 5 10 10 0 6 -4 10 -10 10 -5 0
-10 -4 -10 -10z"/>
<path d="M1167 188 c2 -52 -1 -69 -23 -105 -13 -24 -29 -43 -34 -43 -22 0 -8
-19 20 -29 17 -5 30 -6 30 -1 0 4 -5 10 -12 12 -7 3 -2 20 16 51 19 32 28 61
28 92 0 49 4 51 63 25 11 -5 54 -19 95 -31 41 -12 78 -27 82 -33 4 -6 8 -8 8
-4 0 3 24 -3 53 -14 163 -63 307 -108 342 -108 36 0 30 4 -55 34 -52 19 -209
75 -347 125 -139 50 -257 91 -261 91 -5 0 -7 -28 -5 -62z"/>
<path d="M2244 205 c21 -16 32 -13 21 4 -3 6 -14 11 -23 11 -15 -1 -15 -2 2
-15z"/>
<path d="M2370 185 c7 -8 22 -15 35 -15 12 0 25 -3 29 -7 9 -9 79 -33 84 -28
10 10 -11 22 -58 35 -28 8 -53 18 -56 22 -3 4 -14 8 -26 8 -17 0 -18 -2 -8
-15z"/>
<path d="M2326 103 c-13 -13 -5 -19 42 -32 26 -8 52 -17 57 -22 6 -4 28 -10
49 -14 48 -9 42 10 -6 21 -18 3 -39 10 -48 14 -8 4 -28 14 -45 21 -16 7 -33
14 -36 16 -3 1 -9 0 -13 -4z"/>
<path d="M2520 21 c0 -10 80 -25 88 -16 3 3 -4 5 -16 5 -11 0 -24 5 -27 10 -8
12 -45 13 -45 1z"/>
<path d="M1068 3 c7 -3 16 -2 19 1 4 3 -2 6 -13 5 -11 0 -14 -3 -6 -6z"/>
<path d="M2288 3 c7 -3 16 -2 19 1 4 3 -2 6 -13 5 -11 0 -14 -3 -6 -6z"/>
</g>
</svg>
